<?xml version="1.0" encoding="UTF-8"?>
<svg id="artwork" xmlns="http://www.w3.org/2000/svg" version="1.1" viewBox="0 0 500 500">
  <defs>
    <style>
        .g {fill: #fff;}
        .bg {fill: #000;}
<!--
        @media (prefers-color-scheme: dark) {

        }
-->
    </style>
  </defs>
  <rect class="bg" x="0" y="0" width="500" height="500"/>
  <path class="g" d="M70.7,246.1c0-85.6,68.8-162.8,181.9-162.8s98.9,4.2,149.8,8.4v84c-102-58.1-136-72.6-166.6-72.6-43.6,0-76,40.1-68.8,135.2h50.4c-3.1,19.1-4.6,38.2-4.6,57.3,0,45.1,11.5,90.9,46.2,90.9s43.9-36.3,43.9-108.5-4.2-67.2-13.8-100.1c66.5-3.8,124.5,35.1,124.5,99.3s-63.4,128.4-157,128.4-186.1-74.9-186.1-159.7Z"/>
</svg>