<?xml version="1.0" encoding="UTF-8"?><svg id="Layer_2" xmlns="http://www.w3.org/2000/svg" xmlns:xlink="http://www.w3.org/1999/xlink" viewBox="0 0 557.37 294"><defs><style>.cls-1{fill:none;}.cls-2{fill:#231f20;}.cls-3{fill:#fcd0d0;}.cls-4{fill:#fe5943;}.cls-5{clip-path:url(#clippath);}</style><clipPath id="clippath"><rect class="cls-1" width="557.37" height="294"/></clipPath></defs><g id="Layer_1-2"><rect class="cls-3" width="557.37" height="294"/><g class="cls-5"><path class="cls-2" d="M145.02,98.83c10.78,0,18.89-4.86,18.89-16.07v-2.43c0-7.83-4.64-11.75-12.41-14.52l-5.52-1.96c-2.18-.81-3.21-2.16-3.21-4.39v-2.16c0-1.75.75-2.84,2.52-2.84,1.91,0,2.32,1.42,2.45,3.99l.27,5,15.62-3.38-.27-2.77c-1.02-10.13-6.48-15.26-17.94-15.26-10.44,0-18.69,4.59-18.69,15.2v2.5c0,7.16,4.3,12.76,12.21,15.4l5.25,1.76c2.66.88,3.68,2.23,3.68,4.39v2.36c0,1.82-1.02,2.77-2.59,2.77-2.05,0-3-1.28-3.14-4.19l-.2-5.07-15.48,2.84.21,3.71c.55,10.13,6.62,15.13,18.35,15.13M102.18,98.9c13.44,0,19.37-6.28,19.37-21v-34.78h-15.89v38.76c0,3.11-1.23,4.26-3.27,4.26s-3.34-1.08-3.34-4.12v-38.9h-15.89v35.12c0,15.06,5.46,20.66,19.03,20.66M57.64,65.6v12.29h3.96v1.62c0,3.51-1.36,6.89-4.09,6.89-1.98,0-3.21-.95-3.21-4.53v-22.49c0-3.38,1.23-4.79,3.41-4.79s3.14,1.28,3.61,4.93l.61,4.59,15.21-4.19-.34-2.36c-1.57-11.01-7.43-15.53-18.49-15.53-13.23,0-20.05,6.01-20.05,21.61v15.46c0,12.7,2.66,19.58,12.01,19.58,8.32,0,11.32-4.53,11.87-15.6h.14l.68,14.72h14.46v-32.21h-19.78Z"/><path class="cls-2" d="M504.5,54.73h.21l-1.3,21.68h-5.59l6.68-21.68ZM499.31,43.12l-13.37,35.93v9.52h17.46v9.25h15.69v-9.25h5.46v-12.16h-5.46v-33.29h-19.78ZM465.48,84.99l2.52-2.3c7.64-6.96,13.78-14.45,13.78-24.85v-2.03c0-9.18-6.28-13.78-16.51-13.78-10.91,0-17.05,3.92-18.08,17.96l-.34,4.59,15.01,2.3.34-9.18c.14-2.9.48-3.78,1.98-3.78s1.84,1.01,1.84,3.17v1.22c0,7.23-4.43,13.84-10.44,21.07l-7.37,8.85v9.59h33.83v-12.83h-16.57ZM430.29,43.12v15.26h4.71c-.07,1.82-1.5,4.05-3.41,5.88l4.71,3.58c4.23-3.44,6.68-7.7,6.68-14.72v-9.99h-12.69Z"/><path class="cls-4" d="M522.67,117.02h-92.72v32.87h25.61v108.76h41.15v-108.76h25.96v-32.87ZM379.44,258.66h41.15V117.02h-41.15v141.64ZM313.57,149.02h3.71c7.42,0,9.54,3.15,9.54,9.44v6.47c0,6.82-2.65,11.19-10.24,11.19h-3v-27.1ZM272.42,117.02v141.64h41.15v-51.23h4.24c6.01,0,8.65,3.5,9.18,14.16l1.59,37.07h41.86l-2.3-39.69c-1.24-21.51-9.36-29.73-30.02-30.78v-.35c19.25-3.5,30.2-14.86,30.2-32.17v-5.94c0-22.21-16.25-32.7-42.56-32.7h-53.34ZM224.91,226.13v-22.91h32.49v-32.52h-32.49v-21.16h37.26v-32.52h-78.41v141.64h78.77v-32.52h-37.62ZM171.4,117.02h-55.28l-10.95,91.45h-.35l-11.3-91.45h-55.81v141.64h36.73v-107.71h.35l14.66,107.71h29.85l14.66-107.71h.35v107.71h37.09V117.02Z"/></g></g></svg>