<?xml version="1.0" encoding="UTF-8"?>
<svg id="Liv2" xmlns="http://www.w3.org/2000/svg" xmlns:xml="http://www.w3.org/XML/1998/namespace" version="1.1" viewBox="0 0 47 47">
  <!-- Generator: Adobe Illustrator 30.1.0, SVG Export Plug-In . SVG Version: 2.1.1 Build 136)  -->
  <defs>
    <style>
      .st0 {
        fill-rule: evenodd;
      }

      .st0, .st1 {
        fill: #1d1d1b;
      }
    </style>
  </defs>
  <g>
    <path class="st0" d="M22.1,1.8C10.9,1.8,1.8,10.9,1.8,22.1s9.1,20.2,20.2,20.2,20.2-9.1,20.2-20.2S33.3,1.8,22.1,1.8ZM22.1,44.2C9.9,44.2,0,34.3,0,22.1S9.9,0,22.1,0s22.1,9.9,22.1,22.1-9.9,22.1-22.1,22.1Z"/>
    <path class="st1" d="M35.8,9.9l-.5.5h0s0,0,0,0l-23.4,23.4h24.3c2.7-3.2,4.2-7.3,4.2-11.7,0-4.7-1.8-8.9-4.6-12.2Z"/>
    <path class="st1" d="M34.2,8.5h0c-3.2-3-7.5-4.7-12.2-4.7s-9,1.8-12.3,4.7h24.4Z"/>
    <path class="st1" d="M32.2,10.4H8c-2.6,3.2-4.2,7.2-4.2,11.6s1.8,8.9,4.6,12.2l23.8-23.8Z"/>
    <path class="st1" d="M10,35.7h0c3.2,2.9,7.5,4.7,12.2,4.7s9-1.8,12.2-4.7c0,0-24.4,0-24.4,0Z"/>
  </g>
  <g>
    <path class="st0" d="M22.1,1.8C10.9,1.8,1.8,10.9,1.8,22.1s9.1,20.2,20.2,20.2,20.2-9.1,20.2-20.2S33.3,1.8,22.1,1.8ZM22.1,44.2C9.9,44.2,0,34.3,0,22.1S9.9,0,22.1,0s22.1,9.9,22.1,22.1-9.9,22.1-22.1,22.1Z"/>
    <path class="st1" d="M35.8,9.9l-.5.5h0s0,0,0,0l-23.4,23.4h24.3c2.7-3.2,4.2-7.3,4.2-11.7,0-4.7-1.8-8.9-4.6-12.2Z"/>
    <path class="st1" d="M34.2,8.5h0c-3.2-3-7.5-4.7-12.2-4.7s-9,1.8-12.3,4.7h24.4Z"/>
    <path class="st1" d="M32.2,10.4H8c-2.6,3.2-4.2,7.2-4.2,11.6s1.8,8.9,4.6,12.2l23.8-23.8Z"/>
    <path class="st1" d="M10,35.7h0c3.2,2.9,7.5,4.7,12.2,4.7s9-1.8,12.2-4.7c0,0-24.4,0-24.4,0Z"/>
  </g>
  <path class="st0" d="M22.1,1.8C10.9,1.8,1.8,10.9,1.8,22.1s9.1,20.2,20.2,20.2,20.2-9.1,20.2-20.2S33.3,1.8,22.1,1.8ZM22.1,44.2C9.9,44.2,0,34.3,0,22.1S9.9,0,22.1,0s22.1,9.9,22.1,22.1-9.9,22.1-22.1,22.1Z"/>
  <path class="st1" d="M35.8,9.9l-.5.5h0s0,0,0,0l-23.4,23.4h24.3c2.7-3.2,4.2-7.3,4.2-11.7,0-4.7-1.8-8.9-4.6-12.2Z"/>
  <path class="st1" d="M34.2,8.5h0c-3.2-3-7.5-4.7-12.2-4.7s-9,1.8-12.3,4.7h24.4Z"/>
  <path class="st1" d="M32.2,10.4H8c-2.6,3.2-4.2,7.2-4.2,11.6s1.8,8.9,4.6,12.2l23.8-23.8Z"/>
  <path class="st1" d="M10,35.7h0c3.2,2.9,7.5,4.7,12.2,4.7s9-1.8,12.2-4.7c0,0-24.4,0-24.4,0Z"/>
  <g>
    <path class="st0" d="M22.1,1.8C10.9,1.8,1.8,10.9,1.8,22.1s9.1,20.2,20.2,20.2,20.2-9.1,20.2-20.2S33.3,1.8,22.1,1.8ZM22.1,44.2C9.9,44.2,0,34.3,0,22.1S9.9,0,22.1,0s22.1,9.9,22.1,22.1-9.9,22.1-22.1,22.1Z"/>
    <path class="st1" d="M35.8,9.9l-.5.5h0s0,0,0,0l-23.4,23.4h24.3c2.7-3.2,4.2-7.3,4.2-11.7,0-4.7-1.8-8.9-4.6-12.2Z"/>
    <path class="st1" d="M34.2,8.5h0c-3.2-3-7.5-4.7-12.2-4.7s-9,1.8-12.3,4.7h24.4Z"/>
    <path class="st1" d="M32.2,10.4H8c-2.6,3.2-4.2,7.2-4.2,11.6s1.8,8.9,4.6,12.2l23.8-23.8Z"/>
    <path class="st1" d="M10,35.7h0c3.2,2.9,7.5,4.7,12.2,4.7s9-1.8,12.2-4.7c0,0-24.4,0-24.4,0Z"/>
  </g>
</svg>